<?xml version="1.0" encoding="UTF-8" standalone="no"?>
<svg
   version="1.0"
   width="343.67633pt"
   height="303.79999pt"
   viewBox="0 0 343.67633 303.79999"
   preserveAspectRatio="xMidYMid"
   id="svg12"
  
  >

  <g
     transform="matrix(0.1,0,0,-0.1,-13.4041,321.95297)"
     fill="automatic"
     stroke="none"
     id="g10">
    <path
       d="m 1802,3198 c -42,-45 -72,-128 -72,-199 0,-83 18,-136 75,-219 73,-107 78,-193 19,-299 -38,-69 -29,-111 26,-111 49,0 101,82 121,193 17,91 -5,177 -65,267 -25,36 -49,78 -55,93 -24,62 -8,145 39,204 24,31 26,56 4,77 -22,23 -67,20 -92,-6 z"
       id="path2" />
    <path
       d="m 1231,2818 c -63,-67 -66,-173 -7,-267 43,-70 48,-128 16,-176 -11,-16 -20,-38 -20,-47 0,-25 28,-48 59,-48 43,0 75,45 91,127 12,65 -3,128 -46,194 -39,61 -42,91 -14,137 23,37 26,72 8,90 -19,19 -65,14 -87,-10 z"
       id="path4" />
    <path
       d="m 2444,2823 c -29,-29 -54,-96 -54,-146 0,-48 23,-107 61,-156 25,-32 24,-93 -3,-147 -18,-36 -19,-48 -10,-69 17,-37 73,-35 100,3 31,44 44,100 40,165 -3,50 -11,74 -41,122 -42,69 -45,96 -17,143 23,37 26,72 8,90 -18,18 -64,15 -84,-5 z"
       id="path6" />
    <path
       d="m 1545,2077 c -97,-26 -182,-85 -234,-163 -22,-34 -51,-59 -108,-92 -89,-52 -235,-192 -304,-291 l -44,-64 -110,-29 C 527,1382 384,1323 276,1246 29,1070 111,838 470,696 c 57,-23 68,-32 89,-72 31,-57 112,-141 188,-192 235,-159 558,-237 1033,-249 564,-14 969,72 1213,257 71,54 115,104 157,181 25,46 34,54 105,84 154,67 260,149 296,230 61,134 -20,266 -228,373 -94,48 -316,126 -394,138 -31,5 -48,18 -90,68 -127,151 -302,250 -481,271 -42,5 -59,12 -63,25 -10,31 -95,109 -148,134 -29,14 -83,30 -122,36 -45,7 -86,21 -115,40 -90,57 -261,84 -365,57 z m 174,-107 c 184,-30 280,-153 289,-372 7,-179 -43,-357 -149,-524 -27,-43 -49,-84 -49,-91 0,-20 37,-53 59,-53 49,0 168,206 216,375 50,176 52,363 4,491 -12,31 -19,57 -16,60 2,2 26,-10 53,-28 57,-39 98,-111 115,-203 22,-120 -10,-365 -72,-553 -12,-35 -18,-73 -15,-87 7,-27 36,-40 71,-31 20,5 29,22 55,102 17,53 35,119 41,145 6,27 14,49 19,49 5,0 26,-20 48,-45 39,-44 60,-90 82,-173 12,-46 39,-65 75,-52 34,12 40,34 27,97 -23,110 -90,210 -193,288 -23,17 -26,25 -22,62 5,40 7,43 32,36 131,-31 236,-152 286,-328 26,-94 36,-110 72,-113 25,-2 35,2 48,22 15,23 15,30 -5,103 -63,223 -212,394 -367,419 -56,9 -61,14 -69,63 l -7,44 41,-7 c 120,-19 272,-110 358,-215 64,-77 125,-193 155,-294 22,-76 38,-97 76,-97 26,0 58,42 49,66 -5,12 -1,14 17,8 27,-8 77,-43 77,-53 0,-45 -211,-111 -480,-150 -241,-36 -414,-46 -770,-45 -447,1 -734,28 -1012,96 -96,23 -213,76 -213,96 0,7 15,22 33,33 l 32,21 v -26 c 0,-16 9,-31 25,-42 43,-28 69,-8 95,73 33,98 100,240 150,314 59,87 180,210 256,260 88,57 183,89 269,89 71,0 145,-15 145,-29 0,-4 -24,-13 -54,-20 -73,-16 -208,-85 -285,-146 -122,-96 -237,-270 -295,-450 -30,-93 -32,-112 -9,-137 40,-44 81,-11 112,92 77,250 238,437 444,515 88,33 185,51 199,37 6,-6 11,-39 12,-73 l 1,-62 -70,-12 c -155,-27 -262,-120 -357,-310 -78,-154 -85,-235 -21,-235 42,0 49,9 78,90 56,158 146,279 238,320 41,19 97,27 97,14 0,-20 -97,-206 -149,-287 -35,-54 -61,-105 -61,-120 0,-28 24,-47 59,-47 56,0 242,336 282,506 48,211 -10,355 -177,431 -56,26 -173,48 -205,40 -34,-9 -20,9 21,28 37,17 93,31 130,34 8,0 44,-4 79,-9 z M 780,1317 c 0,-26 -27,-49 -84,-72 -206,-84 -224,-215 -43,-307 225,-113 772,-179 1377,-165 866,21 1349,179 1175,386 -34,40 -79,67 -161,95 -47,17 -70,31 -76,45 -10,27 -7,27 109,-10 142,-46 259,-105 320,-164 81,-79 83,-127 6,-201 C 3312,835 3074,742 2795,686 2288,583 1592,573 1052,660 625,729 307,860 253,988 c -8,18 -11,43 -7,55 27,91 180,185 419,258 104,32 115,34 115,16 z m 223,-762 c 294,-49 444,-60 852,-59 291,0 417,4 538,17 176,19 412,58 532,86 44,11 82,17 85,14 3,-3 -17,-25 -44,-50 -193,-174 -582,-273 -1082,-273 -403,0 -733,58 -959,170 -93,46 -215,131 -215,150 0,4 34,-1 76,-11 41,-11 139,-31 217,-44 z"
       id="path8" />
  </g>
</svg>
